<?xml version="1.0" standalone="no"?>
<!DOCTYPE svg PUBLIC "-//W3C//DTD SVG 20010904//EN"
 "http://www.w3.org/TR/2001/REC-SVG-20010904/DTD/svg10.dtd">
<svg version="1.0" xmlns="http://www.w3.org/2000/svg"
 width="568.000000pt" height="496.000000pt" viewBox="0 0 568.000000 496.000000"
 preserveAspectRatio="xMidYMid meet">

<g transform="translate(0.000000,496.000000) scale(0.100000,-0.100000)"
fill="#000000" stroke="none">
<path d="M1945 4706 c-148 -36 -291 -150 -354 -280 -17 -36 -31 -70 -31 -76 0
-5 -4 -18 -9 -28 -5 -9 -19 -44 -31 -77 -12 -33 -26 -69 -30 -80 -4 -11 -17
-42 -27 -70 l-19 -50 -345 -6 c-189 -3 -357 -9 -374 -13 -112 -26 -211 -68
-280 -119 -65 -49 -153 -145 -189 -207 -37 -63 -76 -164 -76 -198 0 -11 -4
-24 -10 -27 -13 -8 -14 -2608 -1 -2633 5 -9 14 -38 20 -65 44 -187 228 -386
418 -453 130 -45 78 -44 2113 -44 2035 0 1983 -1 2113 44 79 28 168 86 238
155 97 97 156 193 180 298 6 27 15 56 20 65 13 25 12 2625 -1 2633 -5 3 -10
16 -10 27 0 33 -39 135 -75 197 -36 61 -127 160 -190 208 -69 51 -168 93 -280
119 -16 4 -185 10 -374 13 l-345 6 -19 50 c-10 28 -23 59 -27 70 -4 11 -18 47
-30 80 -12 33 -26 68 -31 77 -5 10 -9 23 -9 28 0 6 -14 40 -31 76 -65 134
-216 251 -367 283 -78 16 -1469 14 -1537 -3z m910 -1361 c66 -8 136 -19 155
-24 19 -6 51 -14 70 -19 102 -27 250 -105 355 -187 161 -125 273 -258 354
-420 76 -154 101 -241 122 -427 21 -178 -15 -414 -86 -573 -8 -17 -18 -41 -24
-55 -65 -153 -255 -368 -431 -487 -45 -30 -140 -80 -192 -102 -16 -6 -38 -15
-50 -20 -13 -5 -34 -12 -48 -16 -14 -3 -41 -11 -60 -16 -65 -18 -225 -38 -300
-38 -75 0 -235 20 -300 38 -19 5 -46 13 -60 16 -14 4 -36 11 -50 17 -14 6 -36
15 -50 21 -48 18 -145 70 -190 100 -176 119 -366 334 -431 487 -6 14 -16 38
-24 55 -71 159 -107 395 -86 573 21 186 46 273 122 427 81 162 202 306 356
423 106 80 254 158 353 184 19 5 53 14 75 20 41 10 216 34 270 36 17 1 84 -5
150 -13z"/>
<path d="M2545 2905 c-289 -73 -508 -294 -575 -580 -16 -70 -15 -267 3 -340
54 -219 195 -400 397 -507 36 -19 76 -38 90 -42 122 -35 143 -38 260 -38 117
0 138 3 260 38 14 4 54 23 90 42 171 91 298 234 370 417 47 120 57 329 20 461
-76 278 -285 480 -570 550 -69 17 -277 16 -345 -1z"/>
</g>
</svg>
